/* XPM */
static char *image_xpm[] = {
/* width height ncolors chars_per_pixel */
"128 128 29 1",
"  c #cc3366",
". c #ff99cc",
"+ c #993333",
"@ c #333399",
"# c #cc6666",
"$ c #ffffff",
"% c #cc6699",
"& c #9966cc",
"* c #663399",
"= c #993366",
"- c #ff9999",
"; c #999999",
"> c #993399",
", c #cc99cc",
"' c #663366",
") c #cc3333",
"! c #ffccff",
"~ c #ff6699",
"{ c #666699",
"] c #996666",
"^ c #cccccc",
"/ c #ff6666",
"( c #333366",
"_ c #ffcccc",
": c #ccccff",
"< c #ff3366",
"[ c #cc9999",
"} c #9999cc",
"| c #996699",
"$$$$$$$$$$$$$$$$$$$$$$$$$$$$$$$$$$$$$$$$$$$$$$$$$$$$$$$$$$$$$$$$$$$$$$$$$$$$$$$$$$$$$$$$$$$$$$$$$$$$$$$$$$$$$$$$$$$$$$$$$$$$$$$$",
"$$$$$$$$$$$$$$$$$$$$$$$$$$$$$$$$$$$$$$$$$$$$$$$$$$$$$$$$$$$$$$$$$$$$$$$$$$$$$$$$$$$$$$$$$$$$$$$$$$$$$$$$$$$$$$$$$$$$$$$$$$$$$$$$",
"$$$$$$$$$$$$$$$$$$$$$$$$$$$$$$$$$$$$$$$$$$$$$$$$$$$$$$$$$$$$$$$$$$$$$$$$$$$$$$$$$$$$$$$$$$$$$$$$$$$$$$$$$$$$$$$$$$$$$$$$$$$$$$$$",
"$$$$$$$$$$$$$$$$$$$$$$$$$$$$$$$$$$$$$$$$$$$$$$$$$$$$$$$$$$$$$$$$$$$$$$$$$$$$$$$$$$$$$$$$$$$$$$$$$$$$$$$$$$$$$$$$$$$$$$$$$$$$$$$$",
"$$$$$$$$$$$$$$$$$$$$$$$$$$$$$$$$$$$$$$$$$$$$$$$$$$$$$$$$$$$$$$$$$$$$$$$$$$$$$$$$$$$$$$$$$$$$$$$$$$$$$$$$$$$$$$$$$$$$$$$$$$$$$$$$",
"$$$$$$$$$$$$$$$$$$$$$$$$$$$$$$$$$$$$$$$$$$$$$$$$$$$$$$$$$$$$$$$$$$$$$$$$$$$$$$$$$$$$$$$$$$$$$$$$$$$$$$$$$$$$$$$$$$$$$$$$$$$$$$$$",
"$$$$$$$$$$$$$$$$$$$$$$$$$$$$$$$$$$$$$$$$$$$$$$$$$$$$$$$$$$$$$$$$$$$$$$$$$$$$$$$$$$$$$$$$$$$$$$$$$$$$$$$$$$$$$$$$$$$$$$$$$$$$$$$$",
"$$$$$$$$$$$$$$$$$$$$$$$$$$$$$$$$$$$$$$$$$$$$$$$$$$$$$$$$$$$$$$$$$$$$$$$$$$$$$$$$$$$$$$$$$$$$$$$$$$$$$$$$$$$$$$$$$$$$$$$$$$$$$$$$",
"$$$$$$$$$$$$$$$$$$$$$$$$$$$$$$$$$$$$$$$$$$$$$$$$$$$$$$$$$$$$$$$$$$$$$$$$$$$$$$$$$$$$$$$$$$$$$$$$$$$$$$$$$$$$$$$$$$$$$$$$$$$$$$$$",
"$$$$$$$$$$$$$$$$$$$$$$$$$$$$$$$$$$$$$$$$$$$$$$$$$$$$$$$$$$$$$$$$$$$$$$$$$$$$$$$$$$$$$$$$$$$$$$$$$$$$$$$$$$$$$$$$$$$$$$$$$$$$$$$$",
"$$$$$$$$$$$$$$$$$$$$$$$$$$$$$$$$$$$$$$$$$$$$$$$$$$$$$$$$$$$$$$$$$$$$$$$$$$$$$$$$$$$$$$$$$$$$$$$$$$$$$$$$$$$$$$$$$$$$$$$$$$$$$$$$",
"$$$$$$$$$$$$$$$$$$$$$$$$$$$$$$$$$$$$$$$$$$$$$$$$$$$$$$$$$$$$$$$$$$$$$$$$$$$$$$$$$$$$$$$$$$$$$$$$$$$$$$$$$$$$$$$$$$$$$$$$$$$$$$$$",
"$$$$$$$$$$$$$$$$$$$$$$$$$$$$$$$$$$$$$$$$$$$$$$$$$$$$$$$$$$$$$$$$$$$$$$$!;,|[|[%_$$$$$$$$$$$$$$$$$$$$$$$$$$$$$$$$$$$$$$$$$$$$$$$$",
"$$$$$$$$$$$$$$$$$$$$$$$$$$$$$$$$$$$$$$$$$$$$$$$$$$$$$$$$$$$$$$$$$$$$$$$**'|===# _$$$$$$$$$$$$$$$$$$$$$$$$$$$$$$$$$$$$$$$$$$$$$$$",
"$$$$$$$$$$$$$$$$$$$$$$$$$$$$$$$$$$$$^|'*',^$$$$$$$$$$$!_[_$$$$$$$$$$$$}*'''==== #$$$$$$$$$$$$$$$$$$$$$$$$$$$$$$$$$$$$$$$$$$$$$$$",
"$$$$$$$$$$$$$$$$$$$$$$$$$$$$$$$$$$$,|*>'|*|!$$$$$$$$$^|=|=[$$$$$$$$$$$:'|'|=|= =-$$$$$$$$$$$$$$$$$$$$$$$$$$$$$$$$$$$$$$$$$$$$$$$",
"$$$$$$$$$$$$$$$$$$$$$$$$$$$$$$$$$$^*'*'*'>'|$$$$$$$$^|'='>'%$$$$$$$$$$,*'>'==== #$$$$$$$$$$$$$$$$$$$$$$$$$$$$$$$$$$$$$$$$$$$$$$$",
"$$$$$$$$$$$$$$$$$$$$$$$$$$$$$$$$$$}**'|'>'|'^$$$$$$$,'|=>=|=!$$$$$$$$$:*>'|===# %$$$$$$$$$$$$$$$$$$$$$$$$$$$$$$$$$$$$$$$$$$$$$$$",
"$$$$$$$$$$$$$$$$$$$$$$$$$$$$$$$$$$'*'*'*'*'>|$$$$$$$|='='='=[$$$$$$$$$,*'''==== #$$$$$$$$$$$$$$$$$$$$$$$$$$$$$$$$$$$$$$$$$$$$$$$",
"$$$$$$$$$$$$$$$$$$$$$$$$$$$$$$$$$${'|*>'|'>',$$$$$$$,=>=|=>=!$$$$$$$$$:'|'>=|=#=-$$$$$$$$$$$$$$$$$$$$$$$$$$$$$$$$$$$$$$$$$$$$$$$",
"$$$$$$$$$$$$$$$$$$$$$$$$$$$$$$$$$$'*'*'*'*'*;$$$$$$$^>'='='>_$$$$$$$$$,*'>'==== #$$$$$$$$$$$$$$$$$$$$$$$$$$$$$$$$$$$$$$$$$$$$$$$",
"$$$$$$$$$$$$$$$$$$$$$$$$$$$$$$$$$$,'*'|'*'|':$$$$$$$$[|=>=|=$$$$$$$$$$:**'|===# %$$$$$$$$$$$$$$$$$$$$$$$$$$$$$$$$$$$$$$$$$$$$$$$",
"$$$$$$$$$$$$$$$$$$$$$$$$$$$$$$$$$$^{'*'*'*'*|$$$$$$$$$^|'='=|$$$$$$$$$,*'''==== #$$$$$$$$$$$$$$$$$$$$$$$$$$$$$$$$$$$$$$$$$$$$$$$",
"$$$$$$$$$$$$$$$$$$$$$$$$$$$$$$$$$$$^|*>'|'|'|,$$$$$$$$$$[=|=%$$$$$$$$$:'|'|=|= =-$$$$$$$$$$$$$$$$$$$$$$$$$$$$$$$$$$$$$$$$$$$$$$$",
"$$$$$$$$$$$$$$$$$$$$$$$$$$$$$$$$$$$$$^|||>'*'>,$$$$$$$$$^>'==,$$$$$$$$,*'>'==== #$$$$$$$$$$$$$$$$$$$$$$$$$$$$$$$$$$$$$$$$$$$$$$$",
"$$$$$$$$$$$$$$$$$$$$$$$$$$$$$$$$$$$$$$$$$;|'>'|^$$$$$$$$$||=>=$$$$$$$$^*>'|===# %$$$$$$$$$$$$$$$$$$$$$$$$$$$$$$$$$$$$$$$$$$$$$$$",
"$$$$$$$$$$$$$$$$$$$$$$$$$$$$$$$$$$$$$$$$$$|>'''|^$$$$$$$$^'='=[$$$$$$$}*'''==== #$^$^$$$$$$$$$$$$$$$$$$$$$$$$$$$$$$$$$$$$$$$$$$$",
"$$$$$$$$$$$$$$$$$$$$$$$$$$$$$$$$$$$$$$$$$$$||'>'|!$$$$$$$$%=|=%!$$$$$$^'|'>=|=#=-!#=# %%._$$$$$$$$$$$$$$$$$$$$$$$$$$$$$$$$$$$$$$",
"$$$$$$$$$$$$$$$$$$$$$$$$$$$$$$$$$$$$$$$$$$$$|>'>'|^$$$$$$$[====|,![[=_}*'>'==== #$= = + = +#[_$$$$$$$$$$$$$$$$$$$$$$$$$$$$$$$$$$",
"$$$$$$$$$$$$$$$$$$$$$$$$$$$$$$$$$$$$$$$$$$$$$*|'>',$$$$$$$$=>=|===|==,:**'|===# %_#= =#   #   ~[$$$$$$$$$$$$$$$$$$$$$$$$$$$$$$$$",
"$$$$$$$$$$$$$$$$$$$$$$$$$$$$$$$$$$$$$$$$$$$$$!'>'=',_$$$$$^|'========^,*'''==== #$= + = + + + ) )[_$$$$$$$$$$$$$$$$$$$$$$$$$$$$$",
"$$$$$$$$$$$$$$$$$$$$$$$$$$$$$$$$$$$$$$$$$$$$$$!'|=|'^$$$$$!=|=>=%=|=%^:'|'|=|= =-$#=#   # # #   / /[$$$$$$$$$$$$$$$$$$$$$$$$$$$$",
"$$$$$$$$$$$$$$$$$$$$$$$$$$$$$$$$$$^^;^!$$$$$$$$^'>'=',^$$_===========_,*'>'==== #$= = +   + ) ) ) ) #$$$$$$$$$$$$$$$$$$$$$$$$$$$",
"$$$$$$$$$$$$$$$$$$$$$$$$$$$$$$$$$^|**'|!$$$$$$$$,'|=>'|||=|=>=|===%==,:*>'|===# %_%  =#   #   #   /   !$$$$$$$$$$$$$$$$$$$$$$$$$",
"$$$$$$$$$$$$$$$$$$$$$$$$$$$$$$$$^*'*'*'|^$$$$$$$$['>'='='='='========^,*'''==== #$= + = + ) + ) ) ) ) )_$$$$$$$$$$$$$$$$$$$$$$$$",
"$$$$$$$$$$$$$$$$$$$$$$$$$$$$$$$$,**'|*>'!$$$$$$$$$|'|=>=|=>=|=>=|===%^:'|'>=|=#=-!#=# # #   # # #   / /)_$$$$$$$$$$$$$$$$$$$$$$$",
"$$$$$$$$$$$$$$$$$$$$$$$$$$$$$$$$|*'*'*'*}$$$$$$$$$,='>'='='==========_,*'>'==== #$= = + = +   ) ) ) ) ) )-$$$$$$$$$$$$$$$$$$$$$$",
"$$$$$$$$$$$$$$$$$$$$$$$$$$$$$$$$}'{'*'|'|^$$$$$$$$!'>'|=>=|=>=|===|==,:**'|===# %_#= =#   #   #  )#  )/ <)-$$$$$$$$$$$$$$$$$$$$$",
"$$$$$$$$$$$$$$$$$$$$$$$$$$$$$$$$^*'*'*'*'*|$$$$$$$|='='='='='========^,*'''==== #$= + = + + + ) ) ) ) ) ) )-$$$$$$$$$$$$$$$$$$$$",
"$$$$$$$$$$$$$$$$$$$$$$$$$$$$$$$$$,{'|*>'|*||$$$$$,|'|=>=|=|=|=>=%=|=%^:'|'|=|= =-$#=#   # # #   / # / <)/ /)_$$$$$$$$$$$$$$$$$$$",
"$$$$$$$$$$$$$$$$$$$$$$$$$$$$$$$$$$^,|,**'>'*',^![>'='>'='>'==========_,*'>'==== #$= = +   + ) ) ) ) ) ) )<) )_$$$$$$$$$$$$$$$$$$",
"$$$$$$$$$$$$$$$$$$$$$$$$$$$$$$$$$$$$$$$}|'|'>'|'>'|=>'|=>=|=>=|===%==,:*>'|===# %$$,.##   #   #   /  )/ <)/)< $$$$$$$$$$$$$$$$$$",
"$$$$$$$$$$$$$$$$$$$$^!$$$$$$$$$$$$$$$$$$^|'>'''>'='>'='='='='========^,*'''==== #$$$$$_.  ) + ) ) ) ) ) ) )<) [$$$$$$$$$$$$$$$$$",
"$$$$$$$$$$$$$$$$$$,*{*{|$$$$$$$$$$$$$$$$$$,'|'>'|'>'|=>=|=>=|=>=|===%_^'|'>=|=#=-$$$$$$$$_% # # #   / /)/ <)/ _$$$$$$$$$$$$$$$$$",
"$$$$$$$$$$$$$$$$$&(*@*(**$$$$$$$$$$$$$$$$$$^'>'>'>'='>'='='========[!$}*'>'==== #$$$$$$$$$_-  ) ) ) ) ) )<) )-$$$$$$$$$$$$$$$$$$",
"$$$$$$$$$$$$$$$$}@{@*@{**{$$$$$$$$$$$$$$$$$$,'|'>'|'>'|=>=|=>=|===!$$$^**'|===# %$$$$$$$$$$$! #  )#  )/ <)/)-$$$$$$$$$$$$$$$$$$$",
"$$$$$$$$$$$$$$$$@*(*(*(*(*^$$$$$$$$$$$$$$$$$,''>'='='='='='='====!$$$$,*'''==== #$$$$$$$$$$$$$  ) ) ) ) )  _$$$$$$$$$$$$$$$$$$$$",
"$$$$$$$$$$$$$$$^{*{@{***{*|,$$$$$$$$$$$$$$$$,'>'|=|'|=>=|=|=|=>]$$$$$$:'|'|=|= =-$$$$$$$$$$$$$$#/ # / <)/-$$$$$$$$$$$$$$$$$$$$$$",
"$$$$$$$$$$$$$$$:@*(*(*(*(*(*'||^:$$$$$$$$$$!'>'='>'='>'='>'====!$$$$$$,*'>'==== #$$$$$$$$$$$$$$_  ) ) )~_$$$$$$$$$$$$$$$$$$$$$$$",
"$$$$$$$$$$$$$$$$*@{@*@{***{**'{*{{,^$$$$$$$|>'|'>'|=>'|=>=|=>=!$$$$$$$:*>'|===# %$$$$$$$$$$$$$$$_ /  #!$$$$$$$$$$$$$$$$$$$$$$$$$",
"$$$$$$$$$$$$$$$${*(*(*(*(*(*(*'*'*'*'|;^^^*>'''>'='>'='='='=',$$$$$$$$,*'''==== #$$$$$$$$$$$$$$$$_#-^$$$$$$$$$$$$$$$$$$$$$$$$$$$",
"$$$$$$$$$$$$$$$$$**@{***{{|*{**'{**'|*>'|'>'|'>'|'>'|=>=|=>=%$$$$$$$$$:'|'>=|=#=-$$$$$$$$$$$$$$$$$$$$$$$$$$$$$$$$$$$$$$$$$$$$$$$",
"$$$$$$$$$$$$$$$$$!**@*({,$$$,}**'*'*'*'*'*'*'>'>'>'='>'='='=,$$$$$$$$$,*'>'==== #$$$$$$$$$$$$$$$$$$$$$$$$$$$$$$$$$$$$$$$$$$$$$$$",
"$$$$$$$$$$$$$$$$$$$^,}:$$$$$$$$!^||'*'|'*'|'>'|'>'|'>'|=>=||$$$$$$$$$$:**'|===# %$$$$$$$$$$$$$$$$$$$$$$$$$$$$$$$$$$$$$$$$$$$$$$$",
"$$$$$$$$$$$$$$$$$$$$$$$$$$$$$$$$$$$$};'*'''*'''>'='='='='=',$$$$$$$$$$,*'''==== #$$$$$$$$$$$$$$$$$$$$$$$$$$$$$$$$$$$$$$$$$$$$$$$",
"$$$$$$$$$$$$$$$$$$$$$$$$$$$$$$$$$$$$$$$^&'|'|'>'|=|'|=>=|=|_$$$$$$$$$$:'|'|=|= =-$$$$$$$$$$$$$$$$$$$$$$$$$$$$$$$$$$$$$$$$$$$$$$$",
"$$$$$$$$$$$$$$$$$$$$$$$$$$$$$$$$$$$$$$$$^>'*'>'='>'='>'='>]$$$$$$$$$$$,*'>'==== #$$$$$$$$$$$$$$$$$$$$$$$$$$$$$$$$$$$$$$$$$$$$$$$",
"$$$$$$$$$$$$$$$$$$$$$$$$$$$$$$$$$$$$$$$$$||'>'|'>'|=>'|=>=,$$$$$$$$$$$:*>'|===# %$$$$$$$$$$$$$$$$$$$$$$$$$$$$$$$$$$$$$$$$$$$$$$$",
"$$$$$$$$$$$$$$$$$$$$$$$$$$$$$$$$$$$$$$$$^|'>'''>'='>'='='=,$$$$$$$$$$$,*'''==== #$$$$$$$$$$$$$$$$$$$$$$$$$$$$$$$$$$$$$$$$$$$$$$$",
"$$$$$$$$$$$$$$$$$$$$$$$$$$$$$$$$$$$$$$$$$'>'|'>'|'>'|=>=|=$$$$$$$$$$$$:'|'>=|=#=-$$$$$$$$$$$$$$$$$$$$$$$$$$$$$$$$$$$$$$$$$$$$$$$",
"$$$$$$$$$$$$$$$$$$$$$$$$$$}{'*|$$$$$$$$$|*'*'>'>'>'='>'='|^$$$$$$$$$$$,*'>'==== #$$$$$$$$$$$$$$$$$$$$$$$$$$$$$$$$$$$$$$$$$$$$$$$",
"$$$$$$$$$$$$$$$$$$$$$$$$$}{**'{{:^!^!^,**'|'>'|'>'|'>'|=>=$$$$$$$$$$$$:**'|===# %$$$$$$$$$$$$$$$$$$$$$$$$$$$$$$$$$$$$$$$$$$$$$$$",
"$$$$$$$$$$$$$$$$$$$$$$$$^*(*(*'*(*'*'*'*'*'*'''>'='='='='|$$$$$$$$$$$$,*'''==== #$$$$$$$$$$$$$$$$$$$$$$$$$$$$$$$$$$$$$$$$$$$$$$$",
"$$$$$$$$$$$$$$$$$$$$$$$$:*{*{**'{*{'|*>'|*|'|'>'|=|'|=>=||$$$$$$$$$$$$:'|'|=|= =-$$$$$$$$$$$$$$$$$$$$$$$$$$$$$$$$$$$$$$$$$$$$$$$",
"$$$$$$$$$$$$$$$$$$$$$$$$,*(*'*'*'*'*'*'*'>'*'>'='>'='>'='|$$$$$$$$$$$$,*'>'==== #$$$$$$$$$$$$$$$$$$$$$$$$$$$$$$$$$$$$$$$$$$$$$$$",
"$$$$$$$$$$$$$$$$$$$$$$$$$*{**'{**'{**'|'>'|'>'|'>'|=>'|=>=$$$$$$$$$$$$:*>'|===# %$$$$$$$$$$$$$$$$$$$$$$$$$$$$$$$$$$$$$$$$$$$$$$$",
"$$$$$$$$$$$$$$$$$$$$$$$$$,(*(*'|^$^$^$^,'*'>'''>'='>'='='|_$$$$$$$$$$$,*'''==== #$$$$$$$$$$$$$$$$$$$$$$$$$$$$$$$$$$$$$$$$$$$$$$$",
"$$$$$$$$$$$$$$$$$$$$$$$$$$:{{{,$$$$$$$$$!'>'|'>'|'>'|=>=|=$$$$$$$$$$$$:'|'>=|=#=-$$$$$$$$$$$$$$$$$$$$$$$$$$$$$$$$$$$$$$$$$$$$$$$",
"$$$$$$$$$$$$$$$$$$$$$$$$$$$$$$$$$$$$$$$$!|'*'>'>'>'='>'='>^$$$$$$$$$$$,*'>'==== #$$$$$$$$$$$$$$$$$$$$$$$$$$$$$$$$$$$$$$$$$$$$$$$",
"$$$$$$$$$$$$$$$$$$$$$$$$$$$$$$$$$$$$$$$$$*|'>'|'>'|'>'|=>=_$$$$$$$$$$$:**'|===# %$$$$$$$$$$$$$$$$$$$$$$$$$$$$$$$$$$$$$$$$$$$$$$$",
"$$$$$$$$$$$$$$$$$$$$$$$$$$$$$$$$$$$$$$$$^*'*'''>'='='='='=|$$$$$$$$$$$,*'''==== #$$$$$$$$$$$$$$$$$$$$$$$$$$$$$$$$$$$$$$$$$$$$$$$",
"$$$$$$$$$$$$$$$$$$$$$$$$$$$$$$$$$$$$$$$$,'|'|'>'|=|'|=>=|=%$$$$$$$$$$$:'|'|=|= =-$$$$$$$$$$$$$$$$$$$$$$$$$$$$$$$$$$$$$$$$$$$$$$$",
"$$$$$$$$$$$$$$$$$$$$$$$$$$$$$$$$$$$$$$^|'>'*'>'='>'='>'='>=!$$$$$$$$$$,*'>'==== #$$$$$$$$$$$$$$$$$$$$$$$$$$$$$$$$$$$$$$$$$$$$$$$",
"$$$$$$$$$$$$$$$$$$$$$$$$$$$$$$$$$$$^,{|'>'|'>'|'>'|=>'|=>=|,$$$$$$$$$$:*>'|===# %$$$$$$$$$$$$$$$$$$$$$$$$$$$$$$$$$$$$$$$$$$$$$$$",
"$$$$$$$$$$$$$$$$$$:^{&}$$$$$$$!:||'*'*'*'*'>'''>'='>'='='='|^$$$$$$$$$,*'''==== #$$$$$$$$$$$$$$$$$$$$$$$$$$$$$$$$$$$$$$$$$$$$$$$",
"$$$$$$$$$$$$$$$$$^{@{***^$$^^|{'{**'|*>'|'>'|'>'|'>'|=>=|=>=_$$$$$$$$$:'|'>=|=#=-$$$$$$$$$$$$$$$$$$$$$$$$$$$$$$$$$$$$$$$$$$$$$$$",
"$$$$$$$$$$$$$$$$^*(*@*(*({(*'*'*'*'*'*'*'>'*'>'>'>'='>'='='==$$$$$$$$$,*'>'==== #$$$$$$$$$$$$$$$$$$$$$$$$$$$$$$$$$$$$$$$$$$$$$$$",
"$$$$$$$$$$$$$$$$&@{@*@{**'{**'{**'{'||^:$$^'>'|'>'|'>'|=>=|=>[$$$$$$$$:**'|===# %$$$$$$$$$$$$$$$$[/%_$$$$$$$$$$$$$$$$$$$$$$$$$$$",
"$$$$$$$$$$$$$$$$(*(*(*(*(*(*(*'*'|}$$$$$$$$,'''>'='='='='='='=^$$$$$$$,*'''==== #$$$$$$$$$$$$$$$[ ) )#[$$$$$$$$$$$$$$$$$$$$$$$$$",
"$$$$$$$$$$$$$$$^{*{@{***{*{*||^^$$$$$$$$$$$!|'>'|=|'|=>=|=|=|=|_$$$$$$:'|'|=|= =-$$$$$$$$$$$$$$_/ # / <#_$$$$$$$$$$$$$$$$$$$$$$$",
"$$$$$$$$$$$$$$$:@*(*(*(*(*{:$$$$$$$$$$$$$$$$*>'='>'='>'='>'====|^$$$$$,*'>'==== #$$$$$$$$$$$$$_#) ) ) ) )-_$$$$$$$$$$$$$$$$$$$$$",
"$$$$$$$$$$$$$$$${@{@*@{***$$$$$$$$$$$$$$$$$$|'|'>'|=>'|=>=|=>=|=%^$$$$:*>'|===# %$$$$$$$$$$$$_~   /  )/ <)/-$$$$$$$$$$$$$$$$$$$$",
"$$$$$$$$$$$$$$$$}*(*(*(*(}$$$$$$$$$$$$$$$$$^'''>'='>'='='='='=====,$$$}*'''==== #$$$$$$$$$$$,#) ) ) ) ) ) )<#$$$$$$$$$$$$$$$$$$$",
"$$$$$$$$$$$$$$$$$&*@{***&$$$$$$$$$$$$$$$$$$*|'>'|'>'|=>=|=>=|=>=|=]%$$^'|'>=|=#=-$$$$$$$$$$[# # #   / /)/ <)//$$$$$$$$$$$$$$$$$$",
"$$$$$$$$$$$$$$$$$$}{@**,$$$$$$$$$$$$$$$$$^'*'>'>'>'='>'='='==========_}*'>'==== #$$$$$$$_.    ) ) ) ) ) )<) )<[$$$$$$$$$$$$$$$$$",
"$$$$$$$$$$$$$$$$$$$$$$$$$$$$$$$$$$$$$$$$,'|'>'|'>'|'>'|=>=|=>=|===|==,:**'|===# %$$$$$_%# #   #  )#  )/ <)/)<)!$$$$$$$$$$$$$$$$$",
"$$$$$$$$$$$$$$$$$$$$$$$$$$$$$$$$$$$$,,}|'''*'''>'='='='='='='========^,*'''==== #$[[] = + + + ) ) ) ) ) ) )<)-$$$$$$$$$$$$$$$$$$",
"$$$$$$$$$$$$$$$$$$$$$$$$$$$$$$$$$$!*|*>'|*|'|^$!^=|'|=>=|=|=|=>=%=|=%^:'|'|=|= =-$#=#   # # #   / # / <)/ /)/$$$$$$$$$$$$$$$$$$$",
"$$$$$$$$$$$$$$$$$$$$$$$$$$$$$$$$$$'*'*'*'>',$$$$$^'='>'='>'==========_,*'>'==== #$= = +   + ) ) ) ) ) ) )<)<_$$$$$$$$$$$$$$$$$$$",
"$$$$$$$$$$$$$$$$$$$$$$$$$$$$$$$$$}{**'|'>'!$$$$$$$[=>'|=>=|=>=|===%==,:*>'|===# %_%  =#   #   #   /  )/ <)/_$$$$$$$$$$$$$$$$$$$$",
"$$$$$$$$$$$$$$$$$$$$$$$$$$$$$$$$$}'*'*'*',$$$$$$$$;>'='='='='========^,*'''==== #$= + = + ) + ) ) ) ) ) ) [$$$$$$$$$$$$$$$$$$$$$",
"$$$$$$$$$$$$$$$$$$$$$$$$$$$$$$$$$}*'|*>'|^$$$$$$$$,'|=>=|=>=|=>=|===%^:'|'>=|=#=-!#=# # #   # # #   / /)/_$$$$$$$$$$$$$$$$$$$$$$",
"$$$$$$$$$$$$$$$$$$$$$$$$$$$$$$$$$$'*'*'*'$$$$$$$$$'='>'='='==========_,*'>'==== #$= = + = +   ) ) ) ) ) ^$$$$$$$$$$$$$$$$$$$$$$$",
"$$$$$$$$$$$$$$$$$$$$$$$$$$$$$$$$$$^'*'|*:$$$$$$$$||'>'|=>=|=>=|===|==,:**'|===# %_#= =#   #   #  )#  )/_$$$$$$$$$$$$$$$$$$$$$$$$",
"$$$$$$$$$$$$$$$$$$$$$$$$$$$$$$$$$$$!||;$$$$$$$$$|='='=|^|='='========^,*'''==== #$= + = + + + ) ) ) )#_$$$$$$$$$$$$$$$$$$$$$$$$$",
"$$$$$$$$$$$$$$$$$$$$$$$$$$$$$$$$$$$$$$$$$$$$$$$,|=|'|^$$$!%=|=>=%=|=%^:'|'|=|= =-$#=#   # # #   / # -$$$$$$$$$$$$$$$$$$$$$$$$$$$",
"$$$$$$$$$$$$$$$$$$$$$$$$$$$$$$$$$$$$$$$$$$$$$$,>'>'>,$$$$$,==========_,*'>'==== #$= = +   + ) ) )  _$$$$$$$$$$$$$$$$$$$$$$$$$$$$",
"$$$$$$$$$$$$$$$$$$$$$$$$$$$$$$$$$$$$$$$$$$$$$^|'>'|,$$$$$$$=>=|===%==,:*>'|===# %_%  =#   #   # #,$$$$$$$$$$$$$$$$$$$$$$$$$$$$$$",
"$$$$$$$$$$$$$$$$$$$$$$$$$$$$$$$$$$$$$$$$$$$$^>'>'=|$$$$$$$,='========^,*'''==== #$= + = + ) + #__$$$$$$$$$$$$$$$$$$$$$$$$$$$$$$$",
"$$$$$$$$$$$$$$$$$$$$$$$$$$$$$$$$$$$$$$$$$$$^|'>'||$$$$$$$$[=|=>|!_![[^:'|'>=|=#=-!#=# # # #%_$$$$$$$$$$$$$$$$$$$$$$$$$$$$$$$$$$$",
"$$$$$$$$$$$$$$$$$$$$$$$$$$$$$$$$$$$$$$$$$$^|'>'>|$$$$$$$$!'===|$$$$$$$}*'>'==== #$= =##[[!_$$$$$$$$$$$$$$$$$$$$$$$$$$$$$$$$$$$$$",
"$$$$$$$$$$$$$$$$$$$$$$$$$$$$$$$$$$$$$$$$$$}'>'||$$$$$$$$$||=>=$$$$$$$$^**'|===# %$$$$$$$$$$$$$$$$$$$$$$$$$$$$$$$$$$$$$$$$$$$$$$$",
"$$$$$$$$$$$$$$$$$$$$$$$$$$$$$$$$$$$$^}*|*|'*'''!$$$$$$$$^='='%$$$$$$$$}*'''==== #$$$$$$$$$$$$$$$$$$$$$$$$$$$$$$$$$$$$$$$$$$$$$$$",
"$$$$$$$$$$$$$$$$$$$$$$$$$$$$$$$$$$$^|*>'|*|'|*!$$$$$$$$||=|=|^$$$$$$$$:'|'|=|= =-$$$$$$$$$$$$$$$$$$$$$$$$$$$$$$$$$$$$$$$$$$$$$$$",
"$$$$$$$$$$$$$$$$$$$$$$$$$$$$$$$$$$^*'*'*'>'*'^$$$$$$$$=='>'==$$$$$$$$$,*'>'==== #$$$$$$$$$$$$$$$$$$$$$$$$$$$$$$$$$$$$$$$$$$$$$$$",
"$$$$$$$$$$$$$$$$$$$$$$$$$$$$$$$$$$}**'|'>'|';$$$$$$$$[|=>=|=|^$$$$$$$$:*>'|===# %$$$$$$$$$$$$$$$$$$$$$$$$$$$$$$$$$$$$$$$$$$$$$$$",
"$$$$$$$$$$$$$$$$$$$$$$$$$$$$$$$$$$'*'*'*'*'>|$$$$$$$$|'='='='^$$$$$$$$,*'''==== #$$$$$$$$$$$$$$$$$$$$$$$$$$$$$$$$$$$$$$$$$$$$$$$",
"$$$$$$$$$$$$$$$$$$$$$$$$$$$$$$$$$${'|*>'|'>',$$$$$$$$|>=|=>=|^$$$$$$$$:'|'>=|=#=-$$$$$$$$$$$$$$$$$$$$$$$$$$$$$$$$$$$$$$$$$$$$$$$",
"$$$$$$$$$$$$$$$$$$$$$$$$$$$$$$$$$$'*'*'*'*'*;$$$$$$$$^'='='==$$$$$$$$$,*'>'==== #$$$$$$$$$$$$$$$$$$$$$$$$$$$$$$$$$$$$$$$$$$$$$$$",
"$$$$$$$$$$$$$$$$$$$$$$$$$$$$$$$$$$,'*'|'*'|'!$$$$$$$$$[=>=|=_$$$$$$$$$:**'|===# %$$$$$$$$$$$$$$$$$$$$$$$$$$$$$$$$$$$$$$$$$$$$$$$",
"$$$$$$$$$$$$$$$$$$$$$$$$$$$$$$$$$$^{'*'*'*';!$$$$$$$$$$,=||!$$$$$$$$$$,*'''==== #$$$$$$$$$$$$$$$$$$$$$$$$$$$$$$$$$$$$$$$$$$$$$$$",
"$$$$$$$$$$$$$$$$$$$$$$$$$$$$$$$$$$$^|*>'|*}$$$$$$$$$$$$$$$$$$$$$$$$$$$^'|'|=|= =-$$$$$$$$$$$$$$$$$$$$$$$$$$$$$$$$$$$$$$$$$$$$$$$",
"$$$$$$$$$$$$$$$$$$$$$$$$$$$$$$$$$$$$^,|||^$$$$$$$$$$$$$$$$$$$$$$$$$$$$}*'>'==== #$$$$$$$$$$$$$$$$$$$$$$$$$$$$$$$$$$$$$$$$$$$$$$$",
"$$$$$$$$$$$$$$$$$$$$$$$$$$$$$$$$$$$$$$$$$$$$$$$$$$$$$$$$$$$$$$$$$$$$$$:*>'|===# [$$$$$$$$$$$$$$$$$$$$$$$$$$$$$$$$$$$$$$$$$$$$$$$",
"$$$$$$$$$$$$$$$$$$$$$$$$$$$$$$$$$$$$$$$$$$$$$$$$$$$$$$$$$$$$$$$$$$$$$$^|'''==== ,$$$$$$$$$$$$$$$$$$$$$$$$$$$$$$$$$$$$$$$$$$$$$$$",
"$$$$$$$$$$$$$$$$$$$$$$$$$$$$$$$$$$$$$$$$$$$$$$$$$$$$$$$$$$$$$$$$$$$$$$$!^,,[,[._$$$$$$$$$$$$$$$$$$$$$$$$$$$$$$$$$$$$$$$$$$$$$$$$",
"$$$$$$$$$$$$$$$$$$$$$$$$$$$$$$$$$$$$$$$$$$$$$$$$$$$$$$$$$$$$$$$$$$$$$$$$$$$$$$$$$$$$$$$$$$$$$$$$$$$$$$$$$$$$$$$$$$$$$$$$$$$$$$$$",
"$$$$$$$$$$$$$$$$$$$$$$$$$$$$$$$$$$$$$$$$$$$$$$$$$$$$$$$$$$$$$$$$$$$$$$$$$$$$$$$$$$$$$$$$$$$$$$$$$$$$$$$$$$$$$$$$$$$$$$$$$$$$$$$$",
"$$$$$$$$$$$$$$$$$$$$$$$$$$$$$$$$$$$$$$$$$$$$$$$$$$$$$$$$$$$$$$$$$$$$$$$$$$$$$$$$$$$$$$$$$$$$$$$$$$$$$$$$$$$$$$$$$$$$$$$$$$$$$$$$",
"$$$$$$$$$$$$$$$$$$$$$$$$$$$$$$$$$$$$$$$$$$$$$$$$$$$$$$$$$$$$$$$$$$$$$$$$$$$$$$$$$$$$$$$$$$$$$$$$$$$$$$$$$$$$$$$$$$$$$$$$$$$$$$$$",
"$$$$$$$$$$$$$$$$$$$$$$$$$$$$$$$$$$$$$$$$$$$$$$$$$$$$$$$$$$$$$$$$$$$$$$$$$$$$$$$$$$$$$$$$$$$$$$$$$$$$$$$$$$$$$$$$$$$$$$$$$$$$$$$$",
"$$$$$$$$$$$$$$$$$$$$$$$$$$$$$$$$$$$$$$$$$$$$$$$$$$$$$$$$$$$$$$$$$$$$$$$$$$$$$$$$$$$$$$$$$$$$$$$$$$$$$$$$$$$$$$$$$$$$$$$$$$$$$$$$",
"$$$$$$$$$$$$$$$$$$$$$$$$$$$$$$$$$$$$$$$$$$$$$$$$$$$$$$$$$$$$$$$$$$$$$$$$$$$$$$$$$$$$$$$$$$$$$$$$$$$$$$$$$$$$$$$$$$$$$$$$$$$$$$$$",
"$$$$$$$$$$$$$$$$$$$$$$$$$$$$$$$$$$$$$$$$$$$$$$$$$$$$$$$$$$$$$$$$$$$$$$$$$$$$$$$$$$$$$$$$$$$$$$$$$$$$$$$$$$$$$$$$$$$$$$$$$$$$$$$$",
"$$$$$$$$$$$$$$$$$$$$$$$$$$$$$$$$$$$$$$$$$$$$$$$$$$$$$$$$$$$$$$$$$$$$$$$$$$$$$$$$$$$$$$$$$$$$$$$$$$$$$$$$$$$$$$$$$$$$$$$$$$$$$$$$",
"$$$$$$$$$$$$$$$$$$$$$$$$$$$$$$$$$$$$$$$$$$$$$$$$$$$$$$$$$$$$$$$$$$$$$$$$$$$$$$$$$$$$$$$$$$$$$$$$$$$$$$$$$$$$$$$$$$$$$$$$$$$$$$$$",
"$$$$$$$$$$$$$$$$$$$$$$$$$$$$$$$$$$$$$$$$$$$$$$$$$$$$$$$$$$$$$$$$$$$$$$$$$$$$$$$$$$$$$$$$$$$$$$$$$$$$$$$$$$$$$$$$$$$$$$$$$$$$$$$$",
"$$$$$$$$$$$$$$$$$$$$$$$$$$$$$$$$$$$$$$$$$$$$$$$$$$$$$$$$$$$$$$$$$$$$$$$$$$$$$$$$$$$$$$$$$$$$$$$$$$$$$$$$$$$$$$$$$$$$$$$$$$$$$$$$",
};