/* XPM */
static char *image_xpm[] = {
/* width height ncolors chars_per_pixel */
"32 32 27 1",
"  c #cc3366",
". c #ff99cc",
"+ c #993333",
"@ c #cc6666",
"# c #6666cc",
"$ c #ffffff",
"% c #cc6699",
"& c #993366",
"* c #663399",
"= c #ff9999",
"- c #999999",
"; c #993399",
"> c #cc99cc",
", c #663366",
"' c #cc3333",
") c #ffccff",
"! c #ff6699",
"~ c #666699",
"{ c #996666",
"] c #cccccc",
"^ c #ff6666",
"/ c #333366",
"( c #ffcccc",
"_ c #ccccff",
": c #9999cc",
"< c #cc9999",
"[ c #996699",
"$$$$$$$$$$$$$$$$$$$$$$$$$$$$$$$$",
"$$$$$$$$$$$$$$$$$$$$$$$$$$$$$$$$",
"$$$$$$$$$$$$$$$$$$$$$$$$$$$$$$$$",
"$$$$$$$$$>)$$)$$$][&$$$$$$$$$$$$",
"$$$$$$$$:*,$$[,$$],&($$$$$$$$$$$",
"$$$$$$$$_,[]$>[)$>[&$$$$$$$$$$$$",
"$$$$$$$$$$-[]$[>$],&<(($$$$$$$$$",
"$$$$$$$$$$$[<$)&%[[&= @@($$$$$$$",
"$$$$$$$$[[$$[[&&&<,&% + '=)$$$$$",
"$$$$$$$$[,>$],[&&[[&<&@  '=$$$$$",
"$$$$]]$$]_[[,&,&&-,&<<  ' '=$$$$",
"$$$$#*>$$$$*[&;&(];&$$$%^ !($$$$",
"$$$$**/~[]-*,;,>$],&($$$<($$$$$$",
"$$$$$]$_][[,;,[$$>[&$$$$$$$$$$$$",
"$$$$$$$$$$[;,&[$$],&]$$$$$$$$$$$",
"$$$$$$:*>-[,[&>$$][&$$$$$$$$$$$$",
"$$$$$$[~->,;,;<$$],&]$$$$$$$$$$$",
"$$$$$$$$$$[,;,>$$][&$$$$$$$$$$$$",
"$$$$]])_-[,;,&&$$],&]$$$$$$$$$$$",
"$$$$~*~*>>],[&;<$];&$$$$..$$$$$$",
"$$$$**:$$$];,;,&<],&($(<'  )$$$$",
"$$$$$]$$$>[[[,[&&[[&(<%  '^=$$$$",
"$$$$$$$$[*-$-&,&&[,&@ + ' @$$$$$",
"$$$$$$$$$-$$%[[&%[[&=   ^=$$$$$$",
"$$$$$$$$$$$-[$>&{>,&% +%]$$$$$$$",
"$$$$$$$$$>>[$$<>$>[&(($$$$$$$$$$",
"$$$$$$$$:*,)$<,($],&]$$$$$$$$$$$",
"$$$$$$$$)*[$$]>$$];&$$$$$$$$$$$$",
"$$$$$$$$$$]$$$$$$_,%($$$$$$$$$$$",
"$$$$$$$$$$$$$$$$$$$$$$$$$$$$$$$$",
"$$$$$$$$$$$$$$$$$$$$$$$$$$$$$$$$",
"$$$$$$$$$$$$$$$$$$$$$$$$$$$$$$$$",
};