/* XPM */
static char *image_xpm[] = {
/* width height ncolors chars_per_pixel */
"16 16 21 1",
"  c #cc3366",
". c #ff99cc",
"+ c #ffffff",
"@ c #cc6699",
"# c #993366",
"$ c #663399",
"% c #ff9999",
"& c #999999",
"* c #993399",
"= c #cc99cc",
"- c #663366",
"; c #cc3333",
"> c #ffccff",
", c #666699",
"' c #cccccc",
") c #ff6666",
"! c #ffcccc",
"~ c #ccccff",
"{ c #9999cc",
"] c #cc9999",
"^ c #996699",
"++++++++++++++++",
"+++++++++=++++++",
"++++^{=='#!+++++",
"+++++=+@'#.]++++",
"++++,+^####  >++",
"++=~+^^#=#>@ @++",
"++^{^^-='#!+'+++",
"+++=>$*'+#++++++",
"+++''^-''#!+++++",
"++{{=^^]+#++!+++",
"++&+'^-#^#'];%++",
"++++=>@#@#@ )!++",
"++++'=']=#@.>+++",
"++++{&+=+#++++++",
"++++'+++'=++++++",
"++++++++++++++++",
};